<svg xmlns="http://www.w3.org/2000/svg" width="122" height="108"><path fill="#FEFEFE" d="M0 0h122v108H0z"/><path fill="#BEFDA1" d="M58 8h2q-.214 2.625-.437 5.25l-.247 2.953C59.05 18.565 58.646 20.72 58 23l2.813-.25c8.678.07 16.134 4.06 22.246 9.996C89.556 40.29 90.866 48.312 92 58l17-3v-1l-16-3-1.25-4.062c-1.025-3.134-2.162-5.79-3.937-8.563C85.775 34.58 85.653 32.241 86 28l-3.062.25c-3.93-.25-5.856-1.068-9.106-3.195-2.002-1.153-3.856-1.648-6.082-2.242-2.63-.92-3.524-1.43-4.957-3.86C61.353 14.93 60.652 12.14 62 8c2.758 2.605 4.959 4.932 6.938 8.188C71.513 19.699 72.755 20.15 77 21c2.869.308 5.73.561 8.61.754C88 22 88 22 90 23c1.005 3.015 1.103 5.042 1.063 8.188l-.028 2.73L91 36h2l1.438 3.813.808 2.144c.616 1.67 1.191 3.355 1.754 5.043l1.941-.105c5.885-.185 9.93.13 15.059 3.105 2.438 2.688 2.438 2.688 4 5a312 312 0 0 1-3.312 3l-1.864 1.688C111 61 111 61 108 61v2l-1.863.113-2.45.2-2.425.175C98.576 64.096 97.668 64.842 96 67c-1.666 4.628-2.29 9.015-2.559 13.887C92.855 83.695 92.09 85.02 90 87c-2.96.504-2.96.504-6.375.563-4.818.094-7.708.54-11.625 3.437-1.845 2.625-3.133 5.283-4.5 8.188C66 102 66 102 63 104c-2.375.625-2.375.625-5 0-3.336-3.836-5-6.88-5-12l-1.687-.812C49 90 49 90 46.734 88.457c-3.936-2.097-7.508-1.918-11.894-2.05-3.252-.466-4.627-.982-6.84-3.407-.54-2.672-.54-2.672-.625-5.75-.237-4.771-.838-8.74-2.375-13.25l-2.414-.332c-6.656-.996-12.023-2.025-17.523-6.105C4 56 4 56 4.063 54.063 5.27 51.404 6.786 49.888 9 48c3.783-1.261 7.34-1.27 11.309-1.426 3.516-.75 4.63-1.624 6.691-4.574.529-2.77.874-5.274 1.063-8.062.518-7.157.518-7.157 1.984-9.891 3.195-1.713 6.593-1.626 10.14-1.735l2.272-.103c1.846-.082 3.694-.147 5.541-.209v-2c1.426-1.297 1.426-1.297 3.313-2.75C54.617 14.534 56.375 12.015 58 8"/><path fill="#FEFEFD" d="m0 0 31.813-.312L41.855-.45q3.926-.023 7.852-.038l2.062-.04c2.005-.036 4.01-.039 6.015-.04L61.21-.6C64 0 64 0 65.888 2.535L67 5l-3-1a81 81 0 0 0-4.687-.062l-2.45.027L55 4l-1.066 2.336c-3.985 8.094-3.985 8.094-6.891 9.84-1.918.512-1.918.512-5.043.824v2l-2.484-.14-3.266-.11-3.234-.14c-3.044.176-3.044.176-5.336 1.874-2.38 3.564-2.512 6.81-2.805 11.016-.743 9.317-.743 9.317-2.875 12.5-1.848.79-1.848.79-4.062 1.195l-2.415.48-2.523.45q-2.47.463-4.937.945l-2.215.4C3.773 47.903 3.773 47.903 2 50c-.243 2.899-.243 2.899-.125 6.125l.055 3.32L2 62c4.247.981 8.473 1.31 12.813 1.563l2.1.13q2.542.158 5.087.307l1 3 1.531 1.25c2.832 3.374 1.957 8.272 2.063 12.5.16 3.162.16 3.162 1.613 5.156 2.39 1.459 4.19 1.5 6.98 1.594 5.265.377 9.13.99 13.813 3.5 2.335 4.013 3 6.354 3 11h2l1 2a396 396 0 0 0 5 3v1H0z"/><path fill="#97F079" d="M72.867 28.648c3.09 1.959 5.7 4.309 8.309 6.864 1.712 1.651 1.712 1.651 3.93 1.82C87 38 87 38 88.265 40.598c.823 3.812.786 6.954.484 10.84l-.266 3.808c-.63 4.888-1.317 9.236-4.359 13.191C82 70 82 70 78 70l-1 3h-2v2l2 1c-7.89 5.435-14.653 5.835-24 5-3.522-1.119-6.122-2.705-9-5l-1.957-1.504c-5.76-5.032-8.222-11.395-9.422-18.851-.449-8.18 3.359-16.931 8.625-23.106 8.726-7.657 21.436-8.965 31.621-3.89"/><path fill="#FEFEFE" d="M121 61h1v47H66l3-5c.753-2.256 1.363-4.515 1.96-6.816C72.438 93.082 74.086 91.8 77 90c3.61-.496 7.082-.5 10.723-.531 3.327-.215 3.327-.215 5.703-2.239 1.77-2.509 1.972-3.417 1.699-6.418-.202-4.687-.071-9.47 1.875-13.812 2.794-1.68 5.303-2.362 8.512-2.816.84-.125 1.68-.25 2.545-.377l2.63-.37q2.6-.37 5.2-.753l2.319-.327c1.81-.187 1.81-.187 2.794-1.357"/><path fill="#B9FC9B" d="M55 3q2.124-.079 4.25-.125l2.39-.07C65.35 3.112 67.398 4.397 70 7c.4 2.323.74 4.657 1 7 5.92 2.324 11.365 3.414 17.715 3.79C91 18 91 18 93 19c1.668 2.743 2.244 4.946 2.438 8.125.568 6.242 2.59 11.96 4.562 17.875l1.723.148c7.969.772 14.755 1.657 20.277 7.852.641 2.957.404 4.918 0 8-2.607 2.607-4.658 2.336-8.203 2.648-5.35.673-10.566 2.067-15.797 3.352-1.54 7.378-1.54 7.378-1.812 14.875C96 85 96 85 94.375 87.875c-4.617 2.907-8.624 2.686-14 2.691-4.042.52-5.593 1.492-8.375 4.434-1.112 2.445-1.112 2.445-1.625 5.063-.819 3.536-1.436 5.684-4.375 7.937-4.043.629-5.766.13-9.375-1.875L54 104v-2h-2l-3-11-2.875-.437C43 90 43 90 41 89c-2.757-.197-5.512-.318-8.273-.426-3.549-.747-4.674-1.58-6.727-4.574-.449-2.866-.694-5.382-.75-8.25l-.09-2.258c-.07-1.83-.117-3.661-.16-5.492l-3-1v-3l-3.105.07q-2.042.029-4.082.055l-2.042.05C8.711 64.216 5.65 63.8 2 62a323 323 0 0 1-.687-5.812l-.387-3.27C1 50 1 50 2.24 48.391c2.03-1.604 3.468-2.04 5.99-2.559l2.432-.518c.833-.165 1.667-.33 2.525-.502l2.561-.537C17.83 43.84 19.915 43.42 22 43c1.316-4.85 2.186-9.143 2.313-14.187.309-3.818.63-5.708 2.5-9.125 5-2.648 9.74-1.566 15.187-.688v-2l3.125-.812C50.701 13.894 52.602 8.174 55 3m3 5c-1.187 1.661-1.187 1.661-2.312 3.75C53.565 15.326 51.359 17.505 48 20v2l-3.395.113q-2.209.098-4.417.2l-2.237.068c-2.876.143-5.338.29-7.904 1.666-1.97 3.675-1.855 7.967-2.131 12.06-.307 3.347-.7 5.584-2.643 8.362-2.749 1.852-4.418 2.025-7.71 2.093C13.23 46.812 10.465 47.186 7 50l-1.875 1.438C3.811 52.94 3.811 52.94 4 54.938c1.528 3.15 2.965 4.241 6 6.062 2.783.697 5.541 1.184 8.379 1.605 2.263.341 4.414.798 6.621 1.395 1.871 5.489 2.3 10.533 2.46 16.328.316 2.742.316 2.742 2.212 4.504 2.867 1.439 5.005 1.536 8.203 1.606C43.285 86.748 45.858 87.6 50 91l3 1 .25 2.625c.856 3.852 2.424 6.223 4.75 9.375 3.4-.104 3.4-.104 7-1 1.88-2.161 1.88-2.161 3-5 3.29-6.855 3.29-6.855 6-9 4.263-1.421 8.496-1.28 12.969-1.426 3.08-.3 3.08-.3 4.906-2.351 1.186-2.344 1.513-3.868 1.625-6.473.439-5.415 1.543-10.793 5.5-14.75 2.164-.414 2.164-.414 4.625-.625l2.477-.227L108 63v-2l2.188-.125c4.045-1.259 5.307-3.51 7.812-6.875-3.444-3.849-5.91-5.944-11-7-3.341-.145-6.658-.119-10 0-1.491-3.622-2.787-7.276-4-11h-2l.035-2.082.028-2.73.035-2.708c.012-2.614.012-2.614-1.098-5.48-2.484-1.242-4.416-1.214-7.187-1.375-4.86-.444-8.6-.982-12.813-3.625-1.732-2.268-3.216-4.567-4.64-7.04C64.076 8.694 64.076 8.694 61 8c.251 2.012.61 4.01 1 6l.348 2.04c.604 2.388 1.18 3.97 2.652 5.96 2.755 1.441 5.42 2.352 8.406 3.21C76 26 76 26 79 28c2.332.08 4.668.088 7 0l-.312 2.875c-.028 4.49 1.887 7.744 4.023 11.598C91 45 91 45 93 51l16 3v1l-17 3-1.125-7.437C89.656 43.597 87.837 38.34 83 33l-1.559-1.73c-5.413-5.258-13.051-8.49-20.629-8.52L58 23l.438-2.266L59 17.75l.563-2.953c.54-2.984.54-2.984.437-6.797z"/><path fill="#6F5027" d="M67.875 35.813C72.511 38.403 73.431 40.98 75 46l2 3c.33 7.325-.87 14.824-5 21-4.165 3.837-8.504 4.127-14 4-4.137-.805-6.576-2.495-9.312-5.75C45.47 62.053 44.103 55.944 45 49c1.313-2.125 1.313-2.125 3-4l1.375-3.562c3.652-7.726 11.007-7.743 18.5-5.626"/><path fill="#EAFBE4" d="M65 5h3c2.762 2.762 2.579 5.207 3 9 5.92 2.324 11.365 3.414 17.715 3.79C91 18 91 18 93 19c1.668 2.743 2.244 4.946 2.438 8.125.568 6.242 2.59 11.96 4.562 17.875l1.723.148c7.969.772 14.755 1.657 20.277 7.852.641 2.957.404 4.918 0 8-2.607 2.607-4.658 2.336-8.203 2.648-5.35.673-10.566 2.067-15.797 3.352-1.54 7.378-1.54 7.378-1.812 14.875C96 85 96 85 94.375 87.875c-4.617 2.907-8.624 2.686-14 2.691-4.042.52-5.593 1.492-8.375 4.434-1.112 2.445-1.112 2.445-1.625 5.063-.819 3.536-1.436 5.684-4.375 7.937-4.043.629-5.766.13-9.375-1.875L54 104v-2h-2l-3-11-2.875-.437C43 90 43 90 41 89c-2.757-.197-5.512-.318-8.273-.426-3.549-.747-4.674-1.58-6.727-4.574-.449-2.866-.694-5.382-.75-8.25l-.09-2.258c-.07-1.83-.117-3.661-.16-5.492l-3-1v-3h3c3.446 6.317 3.315 11.904 3 19 3.348 2.002 6.009 2.247 9.875 2.375C43.249 85.735 45.92 86.548 50 90l3 2c1.133 2.348 1.133 2.348 2.125 5.063 1.019 3.224 1.019 3.224 2.875 5.937 3.387.39 3.387.39 7-1 1.61-2.421 2.718-4.883 3.879-7.547 1.28-2.799 2.677-4.58 5.121-6.453 4.29-1.43 8.567-1.333 13.066-1.523L90 86c2.005-3.008 2.24-3.79 2.438-7.187.487-5.245 1.604-10.248 4.87-14.528 2.237-1.7 3.605-1.593 6.38-1.472l2.449.082L108 63v-2l2.813-1.25c3.068-1.684 4.377-2.835 6.187-5.75-3.065-3.536-5.456-4.906-10-6a1916 1916 0 0 0-5.125-.187c-4.415-.359-4.415-.359-6.371-2.29-3.647-6.278-3.782-12.65-4.223-19.722.027-2.704.027-2.704-1.281-3.801-1.872-.16-3.748-.277-5.625-.375C79.202 21.219 75.468 20.662 71 18c-2.676-3.367-3-4.612-3-9h-2z"/><path fill="#F6F9F2" d="M72 33v3l1.688.125C77.163 37.44 79.078 39.935 81 43c.813 2.688.813 2.688 1 6l.223 2.473C82.616 58.635 81.365 64.204 77 70c-5.363 4.539-10.63 6.317-17.594 6.215C52.76 75.62 47.65 72.755 43 68c-4.392-5.62-4.662-11.626-4.453-18.582.834-6.29 3.468-10.433 7.89-14.855C54.094 29.894 63.808 29.212 72 33m-22 6c-1.793 3.488-1.793 3.488-3 7l-2 3c-1.262 7.041.898 13.724 4 20 2.894 3.575 5.47 4.277 9.875 4.938 4.991.29 7.894-.23 12.125-2.938 4.591-6.205 6.9-14.259 6-22-1.363-2.04-1.363-2.04-3-4l-1-3.062c-.99-2.907-1.559-4.154-4-5.938-6.978-2.117-13.454-2.15-19 3"/><path fill="#85EA63" d="M61 8c3.778 1.727 5.46 3.526 7.438 7.063 1.648 2.77 2.296 3.791 5.187 5.374 3.987.665 7.953 1.047 11.984 1.317C88 22 88 22 90 23c1.005 3.015 1.103 5.042 1.063 8.188l-.028 2.73L91 36h2a4248 4248 0 0 1 2.246 5.957c.616 1.67 1.191 3.355 1.754 5.043l1.941-.105c5.885-.185 9.93.13 15.059 3.105 2.438 2.688 2.438 2.688 4 5-5.295 5.664-9.227 6.78-16.914 7.383-3.677.735-5.4 2.047-8.086 4.617-2.277 4.099-2.532 8.402-3 13h-3c-1.346-5.384-.947-8.052 1.895-12.812C90.435 64.31 90.435 64.31 92 58l17-3v-1l-16-3-1.25-4.062c-1.025-3.134-2.162-5.79-3.937-8.563C85.775 34.58 85.653 32.241 86 28l-3.062.25c-3.93-.25-5.856-1.068-9.106-3.195-2.002-1.153-3.856-1.648-6.082-2.242-2.632-.919-3.52-1.41-4.922-3.86C61.498 15.112 61 12.1 61 8"/><path fill="#70E64A" d="M77 28c8.217 6.044 8.217 6.044 9 11-3.137-1.395-5.282-3.067-7.75-5.437-6.32-5.587-12.091-7.133-20.496-6.934-3.683.496-6.613 1.767-9.879 3.496C46 31 46 31 43 31l-1 3h-2l-.867 2.203a137 137 0 0 1-2.203 5.156c-3.54 8.024-4.01 13.88-1.367 22.266C37.7 68.99 40.418 72.515 45 76l1.703 1.313C53.083 81.307 60.762 80.819 68 80c3.108-1.026 5.24-2.197 8-4l-1-3 6-5 2 1c3.789-5.765 4.167-11.04 4.563-17.812l.13-2.1Q87.851 46.544 88 44l2 1c2.551 8.165 1.054 15.488-2.375 23.125-4.059 7.18-10.093 12.153-17.75 15.063C60.893 85.07 53.063 84.598 45 80c-7.142-4.841-11.783-10.593-14-19-1.152-10.123-.023-17.867 5.75-26.187C46.239 22.886 63.965 19.435 77 28"/><path fill="#B5FC96" d="M58 8h2q-.214 2.625-.437 5.25l-.247 2.953C59.05 18.565 58.646 20.72 58 23h7v1l-3.035.297C51.877 25.365 51.877 25.365 43 30l-2.625 1.688c-6.258 6.093-8.5 13.29-8.75 21.812C31.64 60.888 33.659 66.486 37 73l-2 2q-1.228-2.59-2.437-5.187l-1.372-2.918C30 64 30 64 29 59L9 55v-1l1.68-.193c10.806-.883 10.806-.883 19.402-6.381.947-2.827 1.472-5.484 1.918-8.426l1.074-2.145c1.408-2.821.716-4.893-.074-7.855l-2-1 .105 1.977c.2 6.454-.301 10.908-4.792 15.898L25 47l-2-1 1.934-1.496c2.742-3.323 2.849-6.424 3.128-10.566.52-7.157.52-7.157 1.985-9.891 3.195-1.713 6.593-1.626 10.14-1.735l2.272-.103c1.846-.082 3.694-.147 5.541-.209v-2c1.426-1.297 1.426-1.297 3.313-2.75C54.617 14.534 56.375 12.015 58 8"/><path fill="#B0F099" d="m31 28 3 1c1.619 4.607.651 7.314-1.312 11.563l-1.364 2.753c-1.404 2.623-1.404 2.623-2.047 5.41C28 51 28 51 24.742 52.146l-3.867.667-3.883.708L14 54c3.2 1.813 6.133 2.522 9.75 3.125l2.984.508L29 58c.182.592.364 1.183.55 1.793 1.638 5.155 1.638 5.155 4.2 9.895C35 72 35 72 34.875 75.125 34 78.001 33.33 79.177 31 81c-1.622-1.622-1.589-3.658-2-5.875-.527-2.822-1.09-5.395-2-8.125l-2-1v-2l-2.414-.332c-6.656-.996-12.023-2.025-17.523-6.105C4 56 4 56 4.063 54.063 5.27 51.404 6.786 49.888 9 48c4.262-1.42 8.499-1.332 12.969-1.523 3.223-.507 4.144-.9 6.031-3.477 2.54-4.658 2.617-9.806 3-15"/><path fill="#E4FADD" d="M55 3h9l1 2-9 1-.687 2a66 66 0 0 1-3.626 7.125l-1.175 2.008C48.559 19.545 46.817 20.689 44 22c-3.113.293-3.113.293-6.312.188l-3.239-.083L32 22v2h-2l-.262 3.762q-.21 2.463-.425 4.926l-.163 2.474c-.392 4.213-.826 6.397-3.388 9.881-3.065 2.172-4.557 2.55-8.262 2.582C11.947 47.887 8.96 49.04 5 53c.173 2.687.71 3.734 2.7 5.563 2.712 1.695 4.831 2.065 7.988 2.5 2.949.41 2.949.41 5.312.937l1 2q-3.594.08-7.187.125l-2.042.05C8.711 64.216 5.65 63.8 2 62a323 323 0 0 1-.687-5.812l-.387-3.27C1 50 1 50 2.24 48.391c2.03-1.604 3.468-2.04 5.99-2.559l2.432-.518c.833-.165 1.667-.33 2.525-.502l2.561-.537C17.83 43.84 19.915 43.42 22 43c1.316-4.85 2.186-9.143 2.313-14.187.309-3.818.63-5.708 2.5-9.125 5-2.648 9.74-1.566 15.187-.688v-2l3.125-.812C50.701 13.894 52.602 8.174 55 3"/><path fill="#ADF095" d="M45.21 80.895a176 176 0 0 1 4.677 2.156c2.183 1.068 2.183 1.068 4.988 1.574 3.339 2.16 3.625 5.424 4.547 9.16.368 2.173.368 2.173 1.578 3.215l.453-2.484C62.311 91 63.205 88.152 65 85c3.831-2.243 7.695-3.06 12-4l2.703-1.172L82 79c2.813 1.375 2.813 1.375 5 3l-1 2c-1.889.264-3.787.461-5.687.625-4.584.69-7.005 1.297-9.813 5.063A82 82 0 0 0 68 94l-1.172 2.047-1.078 1.89C64 101 64 101 62 102c-2 .04-4 .043-6 0-2.034-3.73-3-5.67-3-10l-1.562-.75C49 90 49 90 45.812 88 41.765 85.641 37.58 84.79 33 84v-3c4.281-2.8 7.62-1.963 12.21-.105"/><path fill="#F5D785" d="M49 45h2l1.875 2.438c2.774 2.992 5.408 3.005 9.375 3.25l3.203.074L68 51c1.607 3.214 1.478 6.515 1 10-1.812 3.5-1.812 3.5-4 6h-3l-1-3-3.187.563c-3.384.388-5.577.32-8.813-.563-2.042-4.977-2.658-9.677-2-15 1.016-2.273 1.016-2.273 2-4"/><path fill="#93EF74" d="M68 28v1l-2.852.113-3.773.2-3.727.175C51.176 30.396 46.67 33.538 42 38c-4.652 7.539-4.787 16.017-3.437 24.563 2.374 5.677 5.977 9.932 11.234 13.148 3.621 1.457 6.31 1.69 10.203 1.664l3.563.023C67.299 76.965 69.7 75.735 73 74c2.375.813 2.375.813 4 2-7.89 5.435-14.653 5.835-24 5-3.522-1.119-6.122-2.705-9-5l-1.957-1.504c-5.76-5.032-8.222-11.395-9.422-18.851-.459-8.361 3.511-16.857 8.691-23.27C49.24 25.915 58.447 26.704 68 28"/><path fill="#E9FBE3" d="M65 5h3c2.762 2.762 2.579 5.207 3 9 5.92 2.324 11.365 3.414 17.715 3.79C91 18 91 18 93 19c1.668 2.743 2.244 4.946 2.438 8.125.568 6.242 2.59 11.96 4.562 17.875l1.723.148C115.828 46.514 115.828 46.514 121 52c.688 2.5.688 2.5 0 5-4.096 3.597-7.629 4.57-13 5l3-2c2.031-1.631 4.01-3.319 6-5-2.923-4.271-4.943-5.876-10-7l-2.469-.09c-6.865-.252-6.865-.252-9.027-2.387-3.647-6.278-3.782-12.65-4.223-19.722.027-2.704.027-2.704-1.281-3.801-1.872-.16-3.748-.277-5.625-.375C79.202 21.219 75.468 20.662 71 18c-2.676-3.367-3-4.612-3-9h-2z"/><path fill="#C3F9B0" d="m45 34 2 1-1.363 1.293C40.826 41.311 39.696 46.236 39.5 53c.218 6.78 1.325 11.44 5.855 16.52 5.212 4.847 11.488 5.965 18.372 5.8C69.352 74.528 74.539 71.486 78 67c4.038-7.067 3.878-14.575 2.25-22.437-1.27-3.62-2.222-5.27-5.25-7.563l-3-1v-2c4 0 4 0 5.633 1.285C84.21 43.12 84.813 50.99 84 61c-.679 3.074-1.53 5.17-3 8l-3 1-1 3c-6.27 4.85-12.986 5.795-20.73 5.477-7.556-1.102-12.209-5.762-16.926-11.508C37.484 64.244 37.067 62.293 37 59l-.11-2.09C36.613 48.761 37.987 42.58 43 36z"/><path fill="#BC8B39" d="M72 46c2.044 1.67 2.92 2.56 3.398 5.2C75.33 58.51 74.305 65.473 69 71c-5.248 1.75-10.838 1.856-16-.187-2.317-2.1-3.116-3.84-4-6.813 1.856.03 1.856.03 3.75.063 2.914.005 5.46-.133 8.25-1.063l1 4c2.363-.945 3.73-1.58 5.125-3.75 1.032-2.653 1.075-4.664 1-7.5l-.055-2.703L68 51l-2-1z"/><path fill="#FAFBF8" d="m65 33 2 2-2.23.113c-7.49.284-7.49.284-13.77 3.887-1.73 3.455-1.73 3.455-3 7l-2 3c-1.247 6.96.846 13.818 4 20 2.032 2.279 2.032 2.279 4 4-2.867-.573-3.861-.861-6-3l-2.375-.625c-3.159-1.654-4.441-3.526-5.898-6.754-1.707-6.157-2.182-13.63.648-19.45C42.295 40.606 44.22 39.56 47 38l1.875-2.125C53.141 32.111 59.557 32.68 65 33"/><path fill="#AAF28F" d="M61 8c3.778 1.727 5.46 3.526 7.438 7.063 1.648 2.77 2.296 3.791 5.187 5.374 3.987.665 7.953 1.047 11.984 1.317C88 22 88 22 90 23c1.005 3.015 1.103 5.042 1.063 8.188l-.028 2.73L91 36h2l-1 4c-2.21-3.314-2.225-4.345-2.125-8.187l.055-2.731L90 27l-4 3v-2l-3.062.25c-3.93-.25-5.856-1.068-9.106-3.195-2.002-1.153-3.856-1.648-6.082-2.242-2.632-.919-3.52-1.41-4.922-3.86C61.498 15.112 61 12.1 61 8"/><path fill="#E1F9D8" d="M22 64h3c3.446 6.317 3.315 11.904 3 19 3.348 2.002 6.009 2.247 9.875 2.375C43.249 85.735 45.92 86.548 50 90l3 2c1.133 2.348 1.133 2.348 2.125 5.063 1.019 3.224 1.019 3.224 2.875 5.937q3.5.061 7 0l-1 3-9-1-1-3h-2l-3-11-2.875-.437C43 90 43 90 41 89c-2.757-.197-5.512-.318-8.273-.426-3.549-.747-4.674-1.58-6.727-4.574-.449-2.866-.694-5.382-.75-8.25l-.09-2.258c-.07-1.83-.117-3.661-.16-5.492l-3-1z"/><path fill="#BCF2A9" d="m65 5 1 4h2l1.438 3.375c1.51 4.307 1.51 4.307 4.874 6.688 4.374 1.111 8.58 1.37 13.079 1.593C90 21 90 21 92 23c.195 3.04.195 3.04.125 6.625l-.055 3.602L92 36h-1l-1-13-6.062-.312C74.43 21.894 74.43 21.894 70 19c-1.76-2.267-3.279-4.568-4.738-7.04C64.146 9.86 64.146 9.86 62 9v4l-3-1 1-4c-1.886 1.706-3.136 3.23-4.437 5.438C53.958 16.069 52.32 17.979 50 20h-2v2c-3.003 1.502-5.79 1.093-9.125 1.063l-3.883-.028L32 23v-1l2.45-.113 3.237-.2 3.2-.175C44.33 20.946 46.236 20.114 49 18c1.566-2.122 1.566-2.122 2.688-4.5C55.216 6.603 57.022 4.823 65 5"/><path fill="#E8FDE0" d="M72 33v3l1.688.125C77.163 37.44 79.078 39.935 81 43c1.64 5.422 1.09 11.374 1 17h-1l-.297-3.324q-.225-2.183-.453-4.364l-.187-2.185C79.542 45.376 78.682 42.357 75 39h-4l-2-2a89 89 0 0 0-4-2v-1c-8.458-.288-8.458-.288-16.195 2.402-1.746 1.81-1.746 1.81-3.805 4.598h-2c.322-3.001.982-3.982 3.188-6.125C53.762 29.825 63.71 29.167 72 33"/><path fill="#EFD991" d="M57 37c4.339-.255 7.967-.4 12.063 1.188C71 40 71 40 71.5 42.5c-.588 2.94-1.174 3.67-3.5 5.5-5.107 1.29-10.343 1.765-15-1l-2-2c.375-3.125.375-3.125 1-6h2v4h12v-3c-1.497-1.497-2.988-1.332-5.062-1.562L57 38z"/><path fill="#EEFCEA" d="M55 3h9l1 2-9 1-.75 2.125c-3.555 8.177-3.555 8.177-8.437 10.188L44 19l-1 1c-3.33.245-6.66.384-9.996.523L30 21c-2.805 4.208-2.385 8.004-2.559 12.969-.465 3.197-.904 4.137-3.441 6.031.033-2.732.1-5.457.188-8.187l.017-2.33c.16-4.13.51-6.078 2.951-9.545 3.49-2.378 5.03-2.34 9.157-1.75l3.238.417L42 19v-2l3.125-.812C50.701 13.894 52.602 8.174 55 3"/><path fill="#C3F4B2" d="m103.188 61.813 2.73.082L108 62v1l-1.863.113-2.45.2-2.425.175C98.576 64.096 97.668 64.842 96 67c-1.666 4.628-2.29 9.015-2.559 13.887C92.855 83.695 92.09 85.02 90 87c-2.96.504-2.96.504-6.375.563-4.818.094-7.708.54-11.625 3.437-1.845 2.625-3.133 5.283-4.5 8.188C66 102 66 102 63 104c-2.687.125-2.687.125-5 0l-1-2 3.375-.25c3.6-.325 3.6-.325 4.875-2.437L66 97c2.034-4.78 4.248-8.642 9-11 4.911-1.153 9.942-2 15-2v-2h2l-.105-1.687c-.225-6.332.465-11.78 4.386-17.028 2.37-1.771 3.986-1.586 6.906-1.472"/><path fill="#93EC75" d="M88 27h2l.184 2.082.254 2.73c.08.894.162 1.787.246 2.708.25 2.607.25 2.607 1.316 5.48h2c3 4.385 3 4.385 3 7l2.75.813c2.965 1.083 4.867 2.17 7.25 4.187-10.364.364-10.364.364-15-2-1.133-2.483-1.765-4.88-2.375-7.54-.526-2.623-.526-2.623-2.375-5.148-1.806-3.34-1.082-5.706-.25-9.312z"/><path fill="#785226" d="M65 35c2.273 1.023 2.273 1.023 4 2l-4 1 3 4c-2 2-2 2-4.312 2.23L61 44.188l-2.687-.02C56 44 56 44 54 43v-4h-2l-1 6h-2c.182-3.997.552-5.574 3.5-8.375C56.8 34.629 60.329 34.27 65 35"/><path fill="#80E95D" d="M43 80c2.34.94 4.613 1.962 6.887 3.05 2.183 1.069 2.183 1.069 4.988 1.575 3.298 2.134 3.703 5.202 4.742 8.867.39 2.551.205 4.088-.617 6.508-3.104-2.483-4.223-4.31-4.937-8.125C53.666 89.8 53.666 89.8 53 88c-2.223-1.523-2.223-1.523-5-2l-2.812-1.062C41.432 83.833 37.892 83.403 34 83l1-3c2.999-1.5 4.74-.77 8 0"/><path fill="#A4F08A" d="M99 47c5.843-.308 9.748.07 15 3 2.438 2.688 2.438 2.688 4 5a496 496 0 0 1-3.312 2.938l-1.864 1.652c-2.922 2.259-5.444 2.531-9.011 2.472L100 62c3.268-2.179 6.38-3.498 10-5l-1-3-2.375-.25C104 53 104 53 102.875 51.063L102 49z"/><path fill="#C8F5B9" d="m93 36 1.25 1.75c4.057 5.217 6.437 6.72 13.125 7.688 5.817.984 9.875 1.789 13.625 6.562.75 2.563.75 2.563 0 5-4.096 3.597-7.629 4.57-13 5l3-2c2.031-1.631 4.01-3.319 6-5-2.923-4.271-4.943-5.876-10-7l-2.469-.09c-6.848-.252-6.848-.252-9.062-2.387C93.486 42.195 93 39.876 93 36"/><path fill="#7EE85A" d="m58 14-1 8-2.484.77-3.266 1.043-3.234 1.019C45.194 25.925 43.374 27.187 41 29c-3.506-.257-5.028-1.019-8-3v-2l2.266-.184 2.984-.253 2.953-.247C43.565 23.05 45.72 22.646 48 22v-2c1.426-1.508 1.426-1.508 3.313-3.125l1.863-1.633C55 14 55 14 58 14"/><path fill="#F8E2A2" d="m55.137 49.363 3.55.95 3.575.925L65 52v6c-5.292 3.077-5.292 3.077-8.875 2.688L54 60l1-3-6-5c1.956-2.86 2.608-3.045 6.137-2.637"/><path fill="#7AE756" d="m31 28 3 1c1.619 4.607.651 7.314-1.312 11.563l-1.364 2.753c-1.37 2.661-1.37 2.661-2.36 5.473L28 51c-4.068 1.556-8.695 1.073-13 1v-2l3.688-1.25c4.516-1.71 8.043-3.592 10.562-7.875C30.356 36.635 30.678 32.362 31 28"/><path fill="#D3F7C7" d="M47.625 16.875 50 17c-4.798 4.958-4.798 4.958-8.82 5.098l-3.305-.035-3.32-.028L32 22v2h-2l-.262 3.762q-.21 2.463-.425 4.926l-.163 2.474c-.384 4.13-.725 6.913-3.732 9.92L23 47l-2-1 1.938-2.25c3.805-5.074 3.316-10.483 3.585-16.656.522-3.387.896-4.842 3.477-7.094 3.066-.54 3.066-.54 6.563-.625 4.68-.136 7.012-2.307 11.062-2.5"/><path fill="#7FE85B" d="M15 57c10.364-.364 10.364-.364 15 2 1.147 2.507 1.804 4.9 2.395 7.59.522 2.648.522 2.648 2.605 5.41-.375 3.188-.375 3.188-1 6l-3 1-.227-2.414c-.996-8.246-.996-8.246-5.976-14.54C21.647 60.213 18.58 59.618 15 59z"/><path fill="#D0A455" d="M58 63c2.063.438 2.063.438 4 1v3l5-2-.937 1.813C64.897 69.09 64.897 69.09 64 72c-8.95.455-8.95.455-13-3-1.312-2.687-1.312-2.687-2-5l3.938.063A59 59 0 0 0 57 64z"/><path fill="#9AEF7E" d="M60.063 25.625C65.81 25.708 70.01 27.269 75 30l2 1-1 3c-4.706-.915-4.706-.915-6.812-1.523C61.794 30.866 54.145 31.802 47 34c2.337-3.506 3.04-3.845 7-5 3.333-.45 6.645-.732 10-1H53c2.534-2.534 3.545-2.326 7.063-2.375"/><path fill="#89EA68" d="M80 79c3.188.875 3.188.875 6 2v3l-2.379.262C76.671 85.192 72.213 86.23 67 91c-1.919 2.634-1.919 2.634-3 5-1.06-2.651-.967-4.619-.812-7.5 2.212-4.272 3.305-4.38 7.75-5.812l3.214-.864c3.014-.717 3.014-.717 5.848-2.824"/><path fill="#8EEE6D" d="m88 44 2 1c2.628 8.411.778 15.55-2.418 23.496C85.68 71.506 84.342 71.98 81 73a70 70 0 0 0-4 3l-2-1v-2a159 159 0 0 1 6-5l2 1c3.789-5.765 4.167-11.04 4.563-17.812l.13-2.1Q87.851 46.544 88 44"/><path fill="#A9F290" d="m23 47-1 2c-2.322.407-4.657.744-7 1v2l3 1-4 2 4 2h-3v2l3 1c-5.625-.45-8.615-1.684-13-5 5.12-6.928 9.25-8.35 18-8"/><path fill="#EBFFE2" d="M30 51v7c-5.063.156-9.504-.372-14.437-1.5l-3.747-.844L9 55v-1a911 911 0 0 1 6.563-1.5l3.69-.844c3.67-.642 7.032-.77 10.747-.656"/><path fill="#BDF5A9" d="M26 66c2 1 2 1 3.063 3.625.96 3.456 1.51 6.817 1.937 10.375 2.77-3.32 2.77-3.32 5-7 1.938.813 1.938.813 4 2l1 3-8 4c2.762 2.762 5.207 2.579 9 3v1c-1.582.082-3.166.14-4.75.188l-2.672.105c-3.16-.36-4.42-.957-6.578-3.293-.574-2.742-.574-2.742-.687-5.875C27.145 73.302 26.848 69.737 26 66"/><path fill="#87EA65" d="M63 13c5 5 5 5 6.156 6.594 2.966 2.262 6.427 2.25 10.031 2.593l2.272.249c1.846.2 3.693.383 5.541.564v3c-3.558 1.68-5.273 2.183-9 1a183 183 0 0 1-5-1.937l-2.562-1.028L68 23l-2.266-.871C64 21 64 21 63.391 19.055z"/><path fill="#EECD78" d="M59 51h9c1.607 3.214 1.478 6.515 1 10-1.812 3.5-1.812 3.5-4 6h-3c-.207-3.732.356-5.712 2-9 .168-2.667.168-2.667 0-5l-5-1z"/><path fill="#B0FA90" d="M58 8h2q-.214 2.625-.437 5.25l-.247 2.953C59.05 18.565 58.646 20.72 58 23h7v1l-3.035.297C54.889 25.065 48.914 25.737 43 30l-2 1-2-2c5.77-4.223 10.934-6.03 18-7l1-8h-2c.875-4.875.875-4.875 2-6"/><path fill="#ACF193" d="M93 66c1.268 3.654.757 6.49.063 10.25l-.59 3.266L92 82h-2v2c-3.03 1.515-6.299 1.648-9.625 2.063l-2.14.275Q75.617 86.673 73 87l1-2c2.723-.633 2.723-.633 6.063-1.125l3.347-.508L86 83l-2-3 3-3 2 3 .367-2.047.508-2.703.492-2.672C90.968 70.131 91.78 68.194 93 66"/><path fill="#EDF6E8" d="m72 68 3 1c-1.015 3.271-2.033 4.019-5.062 5.75-6.525 2.463-12.914 1.832-19.274-.816C48.446 72.689 47.221 71.213 46 69c3.875 1.875 3.875 1.875 5 3 7.292 1.141 13.556 1.954 20-2z"/><path fill="#D3FEBF" d="M94 53q3.594-.04 7.188-.062l2.04-.026c3.726-.018 7.15.195 10.772 1.088v1q-3.592.758-7.187 1.5l-2.042.434C101.125 57.68 97.724 58.174 94 58z"/><path fill="#CCFABB" d="M72 34c4 0 4 0 5.633 1.285C84.37 43.312 84.275 50.838 84 61l-3 1 .07-2.562c.46-11.092.46-11.092-4.007-20.876C74.989 36.819 74.989 36.819 72 36z"/><path fill="#A6EF8C" d="m38.188 22.813 3.292.082L44 23v1H33v4h-2l.105 1.977c.2 6.454-.301 10.908-4.792 15.898L25 47l-2-1 1.934-1.496c2.742-3.323 2.849-6.424 3.128-10.566.525-7.24.525-7.24 2.11-9.922 2.708-1.505 4.947-1.302 8.015-1.203"/><path fill="#CBF5BC" d="m103.188 61.813 2.73.082L108 62v1l-1.863.113-2.45.2-2.425.175C98.576 64.096 97.668 64.842 96 67c-1.666 4.628-2.29 9.015-2.559 13.887-.58 2.782-1.386 4.142-3.441 6.113-2.7.39-2.7.39-5.687.25l-3.012-.11L79 87v-1h9v-2h2v-2h2l-.105-1.687c-.225-6.332.465-11.78 4.386-17.028 2.37-1.771 3.986-1.586 6.906-1.472"/><path fill="#9DF181" d="M83 44c2.19 3.285 2.353 4.831 2.625 8.688l.227 3.011L86 58l1-8h1c.273 6.7.522 13.107-4.125 18.438L82 70c-.625-1.687-.625-1.687-1-4l.969-2.094c1.405-3.96 1.247-7.553 1.156-11.718l-.027-2.39A751 751 0 0 0 83 44"/><path fill="#EFFEEB" d="M42 41c1.35 2.7.63 4.08 0 7-.74 7.906.54 13.879 4 21-3-1-3-1-5.187-4.187C38.043 58.93 38.158 52.348 39 46c1.527-2.926 1.527-2.926 3-5"/><path fill="#AD8445" d="M65 35c2.273 1.023 2.273 1.023 4 2-3.221 1.87-5.928 2.384-9.625 2.688l-2.914.261C54 40 54 40 52 39l-1 6h-2c.182-3.997.552-5.574 3.5-8.375C56.8 34.629 60.329 34.27 65 35"/><path fill="#9AF17D" d="m39 37 2 3-.93 1.516c-1.432 3.324-1.784 6.672-2.195 10.234l-.262 2.113A824 824 0 0 0 37 59h-1l-1-8h-1c.465-5.485.904-9.904 5-14"/><path fill="#DFF9D6" d="M65 5h3c2 2 2 2 2.375 5.438.273 3.557.273 3.557 2.438 5.374L75 17l1.777 1.035c2.706 1.175 5.037 1.38 7.973 1.59l2.984.227L90 20v1c-13.19.585-13.19.585-19-3-2.676-3.367-3-4.612-3-9h-2z"/><path fill="#F3DD97" d="M49 45h2l2 4-3 3c1.933 2.025 3.632 3.421 6 5l-2 4-3-1-.375-2.437L50 55l-2-1-1 2c-.286-7.429-.286-7.429 2-11"/><path fill="#D0A750" d="M72 46c1.5 1 1.5 1 3 3 .273 2.718.135 5.257 0 8h-1l-1-7h-2l.125 3.625c0 3.804-.58 6.855-2.125 10.375l-2 1 .496-1.672c.562-2.594.601-4.926.567-7.578l-.028-2.703L68 51l-2-1z"/><path fill="#DAFECA" d="M57 87h6c.193 4.824-.243 8.496-2 13-1.576-2.886-2.463-5.533-3.125-8.75l-.508-2.422z"/><path fill="#EBFBE5" d="M100 44c7.337-.15 14.192-.095 21 3v5l-2.062-1.375c-5.821-3.22-12.48-4.249-18.938-5.625z"/><path fill="#B0F797" d="m61.125 28.688 3.695-.051C68 29 68 29 69.93 30.52L71 32l-3.219-.07C57.245 31.754 57.245 31.754 47 34c3.56-5.341 8.015-5.293 14.125-5.312"/><path fill="#A36D26" d="M72 59c1.277 3.832.536 5.538-.898 9.191C70 70 70 70 66.812 71.5L64 72c.603-3.705 2.225-5.86 4.563-8.75l1.94-2.422z"/><path fill="#69E541" d="m88 44 2 1c1.898 6.074 1.936 13.31-1 19h-1z"/><path fill="#634225" d="m51 45 2.875 1.563C59.46 48.99 65.374 47.875 71 46c-1 3-1 3-2.754 4.164C64.228 51.66 60.216 51.572 56 51c-3.125-1.875-3.125-1.875-5-4z"/><path fill="#DBFCCF" d="M67 31v1l-2.195.113C55.895 32.72 51.3 34.523 45 41h-2c.322-3.001.982-3.982 3.188-6.125C52.879 30.414 59.206 30.773 67 31"/><path fill="#D2FDC0" d="M30 51v7c-4.161.082-7.947-.018-12-1v-1h10v-3H18v-1c4.053-.982 7.839-1.082 12-1"/><path fill="#8CF06A" d="M86 38c1.543 1.496 1.543 1.496 3 4-.055 2.827-.257 5.296-.687 8.063l-.28 2.181c-.5 3.562-1.01 5.722-3.033 8.756q-.04-3.375-.062-6.75l-.036-3.797c.079-2.771.416-4.82 1.098-7.453-.858-2.218-.858-2.218-2-4z"/><path fill="#57E129" d="M107 57c-2.711 1.808-5.047 2.894-8.062 4.063C95.42 62.424 95.42 62.424 92 64v-6c5.08-.847 9.848-1.09 15-1"/><path fill="#E0FED3" d="m59 13 4 1v9h-5z"/><path fill="#EEFBE9" d="M72 15c2.763.523 5.326 1.109 8 2 2.832.303 5.664.508 8.504.719C91 18 91 18 93 19v2c-14.781-.41-14.781-.41-21-5z"/><path fill="#BAF8A4" d="m49 75 21 1c-3.656 2.437-5.587 2.299-9.937 2.313l-3.715.05C53 78 53 78 49 75"/><path fill="#C9FCB3" d="m91 48 2 2c2.657.682 2.657.682 5.625 1.125l3.04.508L104 52v1H94v5l-3 1z"/><path fill="#E2F9DA" d="M55 3c2.164-.293 2.164-.293 4.625-.187l2.477.082L64 3l1 2-9 1-.875 2.375C54 11 54 11 52 13c.75-6.625.75-6.625 3-10"/><path fill="#B4FC94" d="M90 59h2c-.505 6.23-3.326 11.455-6 17-3 0-3 0-5-1l2.25-2.375C86.65 68.595 88.26 63.92 90 59"/><path fill="#8C6223" d="M68 37c1.813.563 1.813.563 4 2 1.625 3.438 1.625 3.438 3 7l2 3c.125 3.188.125 3.188 0 6h-2l-.332-1.715-.48-2.222-.458-2.215L73 47l-3-1 .125-2.812c.146-3.346.146-3.346-2.125-6.188"/><path fill="#48DE18" d="M15 57c4.833-.083 9.237.047 14 1l-1 4-13-3z"/><path fill="#F9ECC7" d="m52 49 1 3 10 2-1 2c-1.605-.06-3.21-.15-4.812-.25l-2.708-.14C52 55 52 55 50.176 52.952L49 51z"/><path fill="#91EC72" d="M61 8c5.28 2.413 7.228 6.175 10 11l2 3c-3.049-1.13-4.645-2.634-6.625-5.125L64 14h-2z"/><path fill="#96EC78" d="m71 87 2 1-2.312 2.688c-1.693 2.012-2.985 3.827-4.313 6.124C65 99 65 99 62 100v-6h3l.75-1.812c1.414-2.474 2.9-3.622 5.25-5.188"/><path fill="#52E024" d="M93 47c1.586.257 3.168.531 4.75.813l2.672.457c2.77.784 4.404 1.876 6.578 3.73-4.833.083-9.237-.047-14-1z"/><path fill="#6DE546" d="M90 69v11h-3c-1.35-6.38-1.35-6.38.375-9.437C89 69 89 69 90 69"/><path fill="#BE863F" d="M53 68h12l-1 4c-5.957.39-5.957.39-8 0z"/><path fill="#8DEC6D" d="M23 48c-2.906 1.257-4.796 2-8 2v2l3 1-10 1c3.049-4.065 3.531-4.565 8.063-5.812l2.66-.77C21 47 21 47 23 48"/><path fill="#DDF8D3" d="M47.625 16.875 50 17c-2.423 3.111-3.596 3.939-7.566 4.54q-3.016.064-6.034.124c-3.67.117-5.258.241-8.4 2.336.594-1.96.594-1.96 2-4 2.969-.54 2.969-.54 6.5-.625 4.699-.135 7.063-2.307 11.125-2.5"/><path fill="#D9FFC8" d="M32 26c3.775 1.09 6.47 1.908 9 5l-5 4z"/><path fill="#CDF6BF" d="m65 5 1 4-2.812-1C60.08 6.85 60.08 6.85 57 7l-.687 2.75C54.819 13.449 53.246 14.78 50 17c1.82-3.79 3.778-7.43 6-11 3.196-1.065 5.657-1.074 9-1"/><path fill="#F2FCEF" d="m61-.5 3 .5 3 5-12-2c3-3 3-3 6-3.5M53 4l1 2-2 2z"/><path fill="#F5E094" d="M57 37c5.504-.324 9.437-.533 14 3-.375 1.938-.375 1.938-1 4l-2 1-2-2v-3c-1.497-1.497-2.988-1.332-5.062-1.562L57 38z"/><path fill="#B4FC94" d="M85 32c3.286 3.778 5.45 8.265 7 13-.25 3.063-.25 3.063-1 5h-1l-.55-1.977c-1.164-4.044-2.312-7.746-4.2-11.523L84 34z"/><path fill="#C5F4B4" d="M28 26h1c.457 14.254.457 14.254-4.125 19.375L23 47l-2-1 1.875-2.187C27.12 38.195 27.495 32.848 28 26"/><path fill="#D1FEBD" d="M36 73c1.938.813 1.938.813 4 2l1 3c-2.647 1.46-3.894 2-7 2 .875-4.75.875-4.75 2-7"/><path fill="#D6F7CA" d="M111 47c4.378.5 6.92 1.832 10 5 .563 2.563.563 2.563 0 5-2 1.813-2 1.813-4 3l-2-1 1.563-1.25c1.673-1.631 1.673-1.631 1.312-3.75-1.517-3.466-3.756-4.92-6.875-7"/><path fill="#D7F7CC" d="m90 21 4 1v14h-2c-.09-1.373-.09-1.373-.184-2.773l-.254-3.602c-.08-1.183-.162-2.367-.246-3.586C91.19 23.085 91.19 23.085 90 21"/><path fill="#57E12B" d="M63 13c2.964 2.808 5.445 5.183 7 9h-5c-1.498-3.371-2-5.204-2-9"/><path fill="#DDF8D3" d="M22 64h3c3.446 6.317 3.315 11.904 3 19h-1l-.184-2.266-.253-2.984-.247-2.953C25.954 71.326 25.954 71.326 25 68l-3-1z"/><path fill="#B5FC95" d="M41 77c2.242.926 2.242.926 4.875 2.313l2.617 1.363L51 82q1.997 1.006 4 2c-4.162 1.387-6.002-.077-9.836-1.875C42.91 80.952 40.92 79.67 39 78z"/><path fill="#EDFFE6" d="M94 53h10l-1 3h-9z"/><path fill="#68E43F" d="M78 30c3.794 1.49 5.683 3.69 8 7v2c-3.363-1.441-5.63-3.206-8-6z"/><path fill="#4BDF1C" d="m29 47-1 4c-4.41 1.102-8.484 1.077-13 1 4.101-2.221 9.266-5 14-5"/><path fill="#50DF22" d="M65 86h3c-.565 3.958-1.809 6.666-4 10-1.467-3.815-.433-6.29 1-10"/><path fill="#B9F8A3" d="m45 34 2 1-1.332 1.176c-1.987 2.173-3.082 4.36-4.355 7.011l-1.325 2.731L39 48c-.929-2.51-1.188-3.58-.074-6.07l1.386-2.055 1.364-2.07C43 36 43 36 45 34"/><path fill="#E5FDDD" d="M42 41c1.333 2.667.671 4.167 0 7h-2v12h-1c-.081-2.229-.14-4.458-.187-6.687l-.106-3.762C39.015 45.814 39.819 43.994 42 41"/><path fill="#F0F3E7" d="M69.625 33.875 72 34v2h2v4l-1.687-.875C69.915 37.959 67.484 36.966 65 36c2-2 2-2 4.625-2.125"/><path fill="#D4FEC0" d="m86 28-1 6c-1.937-.812-1.937-.812-4-2l-1-3c2-1 2-1 6-1"/><path fill="#87EB64" d="m54 90 3 4 2-1 1 7c-2.451-.98-3.768-1.651-5.25-3.875C54 94 54 94 54 90"/><path fill="#EACF8A" d="M48 54c1.938.813 1.938.813 4 2 1 3 1 3 1 6l-4-1v-3h-2z"/><path fill="#7DE85A" d="m103 49 9 1v3h-8z"/><path fill="#D09E48" d="M70 43v3c-2.495 2.495-3.673 2.36-7.125 2.625l-2.758.227L58 49c2.225-2.225 3.597-2.653 6.563-3.562 2.98-.77 2.98-.77 5.437-2.438"/><path fill="#82E960" d="M55 26c-2.098 2.098-3.38 2.65-6.125 3.625-.724.26-1.449.52-2.195.79L45 31l-1-3c4.103-2.386 6.386-3.493 11-2"/><path fill="#4EDF1F" d="M54 86h3l1 10c-2.925-3.9-3.475-5.383-4-10"/><path fill="#62E338" d="m80 79 5 2v2h-9z"/><path fill="#80E95D" d="m46 77 9 4-1 2c-3.821-.53-6.062-1.497-9-4z"/><path fill="#80E85D" d="M87 59h1c1.02 3.891 1.168 5.606-.437 9.375L86 71h-3l.875-2.062C85.126 65.67 86.075 62.372 87 59"/><path fill="#66E43D" d="M45 29v2h-2l-1 3h-2l-1 3h-2c.34-3.175 1.025-4.023 3.438-6.25C43 29 43 29 45 29"/><path fill="#D7F7CB" d="m12 48-2.25 1.188C6.802 51.13 5.069 53.165 3 56c.25-3.375.25-3.375 1-7 2.792-2.31 4.671-2.189 8-1"/><path fill="#BEF3AB" d="M93 36c1.672 2.15 3.168 4.281 4.563 6.625C98.917 45.076 98.917 45.076 101 47h-4c-4-6.5-4-6.5-4-11"/><path fill="#61E337" d="M88 27h1v10l-3-2c.875-6.875.875-6.875 2-8"/><path fill="#B5F59D" d="M65 8v3l-3-2v4l-3-1 1-4-3 1V7c3.623-1.208 4.641-.543 8 1"/><path fill="#D9F8CE" d="m4 56 9 6H4z"/><path fill="#E4FADC" d="M121 53h1c.359 3.23.273 4.612-1.625 7.313-2.98 2.117-4.797 2.012-8.375 1.687 3-2 3-2 5.625-3.375 2.529-1.395 2.529-1.395 3.188-3.812z"/><path fill="#8AED69" d="m33 49 3 1v8h-3z"/><path fill="#543A25" d="M71 46c-1 3-1 3-2.75 4.188-2.55.92-4.56.961-7.25.812 2.688-3.112 5.803-5 10-5"/><path fill="#4FDF20" d="M56 14h2l-1 8h-5l1.438-1.75C54.948 18.074 55.54 16.574 56 14"/><path fill="#D7FEC6" d="m84 74 2 2c-.375 2.125-.375 2.125-1 4l-4-1v-3z"/><path fill="#84EA62" d="M10 56h8l-3 1v2l3 1-7-1z"/><path fill="#F7E5B5" d="m53 55 8 1c-2 3-2 3-4.625 3.688L54 60l1-3z"/><path fill="#78E751" d="m92 44 10 4c-2.788 1.033-3.868 1.045-6.75.063L93 47l-1 3z"/><path fill="#7EE959" d="m73 85-5 5v-4l-3-1c3.053-.981 4.947-.981 8 0"/><path fill="#5CE132" d="M84 70c0 3 0 3-2.5 5.688L79 78l-2-1c4.75-5.875 4.75-5.875 7-7"/><path fill="#5CE231" d="m32 70 3 2c-.375 2.938-.375 2.938-1 6l-2 1z"/><path fill="#A8F689" d="M56 85h9l-1 7h-1v-5h-6z"/><path fill="#5CE231" d="M37 79c2.938.375 2.938.375 6 1l1 2h-8z"/><path fill="#62E339" d="M15 57h8v3l-8-1z"/><path fill="#B9FD9A" d="m49 26-8 5-2-2c5.5-4.125 5.5-4.125 10-3"/><path fill="#86EA65" d="M58 8h2l-1 7-3-1c.875-4.875.875-4.875 2-6"/><path fill="#8A643A" d="m59 40 7 1v3l-7-2z"/><path fill="#85E963" d="M89 27h1l1 14c-3-3-3-3-3.074-5.7l.386-2.987.364-3.012z"/><path fill="#5CE231" d="m33 30 2 1c-.375 2.938-.375 2.938-1 6l-2 1q-.062-3.5 0-7z"/><path fill="#C5F4B5" d="m30 83 12 2v1q-2.437.118-4.875.188l-2.742.105L32 86z"/><path fill="#D0FFBA" d="M18 53v3l-9-1v-1c3.153-.7 5.727-1 9-1"/><path fill="#82E960" d="m86 38 3 4-2 4-3-7z"/><path fill="#C9FEB0" d="m32 26 6 2-2 5c-1.892-2.386-3.024-4.072-4-7"/><path fill="#58E12D" d="M77 25h8c-1.25 1.563-1.25 1.563-3 3-2.125-.187-2.125-.187-4-1z"/></svg>